<svg width="58" height="37" fill="none" xmlns="http://www.w3.org/2000/svg"><path d="M54.72 0H3a3 3 0 00-3 3v31a3 3 0 003 3h51.72a3 3 0 003-3V3a3 3 0 00-3-3z" fill="#fff"/><path d="M51.06 18.5c0 7.337-5.946 13.284-13.282 13.284-7.334 0-13.281-5.947-13.281-13.283 0-7.337 5.946-13.284 13.281-13.284 7.336 0 13.282 5.947 13.282 13.284z" fill="#D9222A"/><path d="M27.518 26.935a13.158 13.158 0 01-1.012-1.406h4.708c.283-.453.539-.923.765-1.407h-6.238a13.173 13.173 0 01-.562-1.406h7.362a13.37 13.37 0 00.384-7.029h-8.13c.103-.475.232-.945.386-1.406h7.359c-.161-.48-.349-.949-.562-1.407h-6.235c.227-.483.482-.953.765-1.406h4.704a13.19 13.19 0 00-1.011-1.405H27.52c.412-.5.86-.97 1.34-1.406a13.234 13.234 0 00-8.918-3.44c-7.336 0-13.283 5.947-13.283 13.284 0 7.335 5.947 13.282 13.283 13.282 3.432 0 6.561-1.302 8.918-3.439.481-.436.93-.907 1.342-1.408h-2.684" fill="#0097D0"/><path d="M46.483 21.377a.43.43 0 110 .002v-.002zm.429.327a.327.327 0 10-.001-.654.327.327 0 00.001.654zm-.058-.138h-.088v-.377h.16c.032 0 .066 0 .096.019.03.02.047.057.047.094a.102.102 0 01-.065.097l.07.167h-.098l-.057-.149h-.065v.149zm0-.214h.049c.018 0 .037.001.053-.007a.052.052 0 00.022-.044.047.047 0 00-.02-.038c-.016-.01-.04-.007-.057-.007h-.047v.096zm-17.768.322a6.45 6.45 0 01-1.696.223c-1.852-.002-2.816-.845-2.816-2.457 0-1.884 1.227-3.27 2.893-3.27 1.363 0 2.233.777 2.233 1.994 0 .404-.06.797-.203 1.354h-3.292c-.117.787.458 1.133 1.436 1.133.587 0 1.117-.105 1.705-.342l-.26 1.365zm-.885-3.267c0-.119.183-.964-.77-.983-.526 0-.903.35-1.056.983h1.826zm2-.37c0 .697.392 1.177 1.282 1.536.682.278.789.359.789.607 0 .346-.301.504-.969.5a5.494 5.494 0 01-1.5-.215l-.239 1.27c.48.111 1.154.148 1.75.162 1.778 0 2.6-.582 2.6-1.84 0-.756-.343-1.202-1.188-1.533-.705-.282-.788-.343-.788-.598 0-.3.28-.452.825-.452.33 0 .783.031 1.212.082l.24-1.276a12.992 12.992 0 00-1.484-.11c-1.884 0-2.535.848-2.53 1.867zm-6.53 3.77h-1.38l.033-.58c-.422.456-.983.669-1.744.669-.9 0-1.518-.616-1.518-1.502 0-1.346 1.072-2.123 2.918-2.123.19 0 .43.014.678.042.051-.18.065-.258.065-.356 0-.369-.29-.504-1.066-.504a6.385 6.385 0 00-1.761.245l.235-1.236c.83-.21 1.372-.292 1.986-.292 1.428 0 2.182.56 2.182 1.613.013.281-.085.844-.134 1.092-.056.359-.452 2.44-.493 2.931zM22.46 19.35a3.101 3.101 0 00-.371-.024c-.941 0-1.42.28-1.42.834 0 .348.234.565.597.565.677 0 1.166-.566 1.194-1.376zm14.364 2.369a4.304 4.304 0 01-1.188.178c-.846 0-1.308-.433-1.308-1.203-.026-.211.18-1.188.227-1.46.047-.274.78-4.255.78-4.255h1.643l-.248 1.317h.843l-.23 1.345h-.846s-.465 2.333-.465 2.511c0 .283.172.406.565.406.188 0 .334-.017.446-.052l-.219 1.213zm8.175-3.135c0 1.241-.51 1.976-1.314 1.976-.586.008-.942-.483-.942-1.219 0-.873.519-1.858 1.352-1.858.673 0 .904.533.904 1.1zm1.774.034c0-1.375-.903-2.448-2.604-2.448-1.957 0-3.223 1.305-3.223 3.226 0 1.375.746 2.501 2.601 2.501 1.871 0 3.226-1 3.226-3.279zm-8.485-2.322c-.208 1.704-.578 3.432-.867 5.14l-.07.37h1.66c.599-3.297.8-4.236 2.053-3.905l.603-1.56c-.874-.322-1.438.136-1.947.788.046-.293.133-.576.112-.833h-1.544zm-19.999 5.51h-1.653l.982-5.176-2.262 5.177h-1.507l-.276-5.147-.985 5.147h-1.5l1.277-6.734h2.584l.137 4.168 1.818-4.168h2.688l-1.303 6.734" fill="#fff"/></svg>