<svg width="58" height="37" fill="none" xmlns="http://www.w3.org/2000/svg"><path d="M55 0H3a3 3 0 00-3 3v31a3 3 0 003 3h52a3 3 0 003-3V3a3 3 0 00-3-3z" fill="#fff"/><g clip-path="url(#clip0_3913_62)" fill-rule="evenodd" clip-rule="evenodd"><path d="M19.126 12v.006c-.006 0-1.758-.006-2.225 1.703-.428 1.566-1.635 5.892-1.669 6.012H14.9s-1.235-4.423-1.67-6.018C12.764 11.994 11.006 12 11.006 12H7v13h4.005v-7.72h.334L13.675 25h2.781l2.336-7.715h.334V25h4.005V12h-4.005zm14.629 0s-1.173.108-1.724 1.362l-2.837 6.359h-.334V12h-4.005v13h3.783s1.23-.113 1.78-1.362l2.781-6.359h.334V25h4.005V12h-3.783zm5.562 5.904V25h4.005v-4.144h4.339c1.891 0 3.493-1.232 4.088-2.952H39.317z" fill="#4DB45E"/><path d="M47.661 12h-8.905c.445 2.475 2.264 4.462 4.617 5.11a6.278 6.278 0 001.674.226h6.864a4.46 4.46 0 00.089-.908C52 13.98 50.059 12 47.661 12z" fill="url(#paint0_linear_3913_62)"/></g><defs><linearGradient id="paint0_linear_3913_62" x1="38.757" y1="14.668" x2="52" y2="14.668" gradientUnits="userSpaceOnUse"><stop offset=".3" stop-color="#00B4E6"/><stop offset="1" stop-color="#088CCB"/></linearGradient><clipPath id="clip0_3913_62"><path fill="#fff" transform="translate(7 12)" d="M0 0h45v13H0z"/></clipPath></defs></svg>