<svg width="58" height="37" fill="none" xmlns="http://www.w3.org/2000/svg"><path d="M55 0H3a3 3 0 00-3 3v31a3 3 0 003 3h52a3 3 0 003-3V3a3 3 0 00-3-3z" fill="#fff"/><path d="M21.802 25.806l2.481-14.486h3.968l-2.483 14.486h-3.966zm18.3-14.174c-.785-.293-2.017-.608-3.555-.608-3.92 0-6.682 1.964-6.706 4.78-.022 2.082 1.972 3.243 3.477 3.936 1.544.71 2.063 1.163 2.056 1.797-.01.971-1.233 1.415-2.374 1.415-1.588 0-2.431-.22-3.735-.76l-.51-.231-.558 3.243c.927.404 2.64.755 4.42.773 4.17 0 6.878-1.942 6.91-4.95.014-1.648-1.043-2.902-3.332-3.936-1.387-.67-2.236-1.117-2.227-1.795 0-.602.719-1.246 2.272-1.246a7.353 7.353 0 012.97.555l.355.167.538-3.14zm10.211-.312h-3.066c-.95 0-1.66.258-2.078 1.2l-5.892 13.277h4.166s.681-1.786.836-2.177l5.081.006c.119.507.483 2.17.483 2.17h3.681l-3.21-14.477zm-4.864 9.354c.328-.835 1.58-4.05 1.58-4.05-.023.04.326-.838.527-1.382l.268 1.249s.76 3.458.918 4.183H45.45zM18.434 11.32l-3.884 9.879-.414-2.008c-.723-2.314-2.977-4.821-5.495-6.077l3.552 12.67 4.197-.006 6.247-14.458h-4.203" fill="#0E4595"/><path d="M10.925 11.319H4.527l-.05.301c4.977 1.2 8.27 4.097 9.637 7.579l-1.39-6.657c-.241-.918-.938-1.191-1.8-1.223" fill="#F2AE14"/></svg>