<svg width="108" height="30" fill="none" xmlns="http://www.w3.org/2000/svg"><path d="M60.427 28.3h-3.723c-.416 0-.767-.11-1.052-.332-.273-.22-.533-.54-.78-.956l-7.036-10.024a3.403 3.403 0 00-.526-.644 1.972 1.972 0 00-.565-.429 2.032 2.032 0 00-.702-.234 4.307 4.307 0 00-.877-.078h-3.293V28.3H37.72V.293h4.152v12.111h2.826c.571 0 1.058-.084 1.461-.253.416-.182.812-.54 1.19-1.073l7.035-9.635c.208-.338.455-.61.74-.819.3-.22.657-.331 1.072-.331h3.508L51.46 11.722a5.037 5.037 0 01-1.11 1.17c-.416.299-.871.54-1.365.722.702.182 1.293.487 1.774.916.494.416.968.995 1.422 1.736L60.427 28.3zm13.672-3.296c1.052 0 1.949-.124 2.69-.37.753-.248 1.364-.586 1.832-1.015.48-.43.831-.936 1.052-1.521a5.61 5.61 0 00.331-1.95c0-1.392-.48-2.484-1.442-3.277-.962-.806-2.45-1.21-4.463-1.21h-5.847v9.343h5.847zM68.252 3.55v9.166h4.775c2.04 0 3.554-.41 4.541-1.228 1-.832 1.5-1.95 1.5-3.355 0-1.6-.474-2.763-1.422-3.491-.948-.728-2.423-1.092-4.424-1.092h-4.97zm4.97-3.257c1.754 0 3.255.169 4.502.507 1.26.338 2.293.825 3.099 1.462a5.71 5.71 0 011.773 2.321c.39.898.585 1.918.585 3.062a6.13 6.13 0 01-.312 1.95 5.797 5.797 0 01-.955 1.756 7.01 7.01 0 01-1.617 1.443c-.65.43-1.417.787-2.3 1.073 4.067.806 6.1 2.932 6.1 6.378 0 1.196-.22 2.288-.663 3.276a7.169 7.169 0 01-1.93 2.536c-.844.715-1.883 1.268-3.117 1.658-1.235.39-2.638.585-4.21.585H64.1V.293h9.12zM108 3.764h-8.887V28.3H94.98V3.764h-8.926V.293H108v3.471zm-88.222 6.378a16.928 16.928 0 011.676-.254 16.653 16.653 0 011.579-.078c1.481 0 2.787.228 3.917.683 1.144.442 2.099 1.053 2.865 1.833a7.547 7.547 0 011.754 2.75 9.7 9.7 0 01.585 3.394c0 1.508-.266 2.886-.8 4.135a9.562 9.562 0 01-2.22 3.198c-.936.884-2.06 1.573-3.373 2.068-1.299.494-2.722.74-4.268.74-.896 0-1.754-.097-2.572-.292a12.53 12.53 0 01-2.3-.74 13.76 13.76 0 01-3.606-2.42l1.657-2.262c.35-.48.805-.721 1.364-.721.35 0 .695.104 1.033.312.338.208.721.442 1.15.702.429.247.929.474 1.5.682.572.208 1.267.313 2.086.313.845 0 1.579-.137 2.202-.41a4.322 4.322 0 001.54-1.15 4.733 4.733 0 00.916-1.737 7.327 7.327 0 00.312-2.165c0-1.469-.422-2.6-1.267-3.393-.832-.806-2.046-1.21-3.645-1.21-1.312 0-2.63.248-3.956.742l-3.333-.936L16.952 0H31.14v2.262c0 .377-.058.722-.175 1.034a1.92 1.92 0 01-.546.8c-.247.22-.571.396-.974.526-.39.117-.87.176-1.442.176h-7.309l-.916 5.344z" fill="#fff"/><path d="M12.216 15.12l6.76 1.828L6.758 27.65 9.2 18.613l-6.76-1.828 12.217-10.7-2.44 9.035z" fill="#fff"/></svg>