<svg viewBox="0 0 25 25" xmlns="http://www.w3.org/2000/svg" xmlns:xlink="http://www.w3.org/1999/xlink"><style>:root&gt;svg{display:none}:root&gt;svg:target{display:block}</style><svg viewBox="0 0 22 22" id="cart-icon" xmlns="http://www.w3.org/2000/svg"><path d="M2.167 14.667v-12.5H.083V.083h3.125A1.042 1.042 0 014.25 1.125v12.5h12.956l2.084-8.333H6.332V3.208h14.292a1.041 1.041 0 011.01 1.295L19.031 14.92a1.042 1.042 0 01-1.01.788H3.208a1.041 1.041 0 01-1.041-1.041zm2.083 7.291a2.083 2.083 0 110-4.166 2.083 2.083 0 010 4.166zm12.5 0a2.083 2.083 0 110-4.166 2.083 2.083 0 010 4.166z"/></svg><svg viewBox="0 0 25 25" id="chart-icon" xmlns="http://www.w3.org/2000/svg"><path d="M3.125 12.5h2.083v9.375H3.125V12.5zm16.667-4.167h2.083v13.542h-2.083V8.333zm-8.334-6.25h2.084v19.792h-2.084V2.083z"/></svg><svg viewBox="0 0 24 24" id="close-icon" xmlns="http://www.w3.org/2000/svg"><g clip-path="url(#cclip0_38_1642)"><path d="M12 10.586l4.95-4.95 1.414 1.414-4.95 4.95 4.95 4.95-1.414 1.414-4.95-4.95-4.95 4.95-1.414-1.414 4.95-4.95-4.95-4.95L7.05 5.636l4.95 4.95z"/></g><defs><clipPath id="cclip0_38_1642"><path d="M0 0h24v24H0z"/></clipPath></defs></svg><svg viewBox="0 0 16 16" id="email-icon" xmlns="http://www.w3.org/2000/svg"><path d="M12.667 2.667H3.333a2 2 0 00-2 2v6.666a2 2 0 002 2h9.334a2 2 0 002-2V4.667a2 2 0 00-2-2zM12.22 4L8 7.167 3.78 4h8.44zm.447 8H3.333a.666.666 0 01-.666-.667v-6.5l4.933 3.7a.667.667 0 00.8 0l4.934-3.7v6.5a.666.666 0 01-.667.667z"/></svg><svg viewBox="0 0 22 22" id="facebook-icon" xmlns="http://www.w3.org/2000/svg"><path d="M19.25 0H2.75A2.753 2.753 0 000 2.75v16.5A2.753 2.753 0 002.75 22H11v-7.563H8.25V11H11V8.25a4.125 4.125 0 014.125-4.125h2.75v3.438H16.5c-.759 0-1.375-.072-1.375.687V11h3.438l-1.375 3.438h-2.063V22h4.125A2.753 2.753 0 0022 19.25V2.75A2.753 2.753 0 0019.25 0z"/></svg><svg viewBox="0 0 21 20" id="heart-icon" xmlns="http://www.w3.org/2000/svg"><path d="M10.501 1.718a6.248 6.248 0 018.585.237 6.251 6.251 0 01.246 8.58L10.5 19.38l-8.831-8.846A6.25 6.25 0 0110.5 1.717zm7.11 1.71a4.165 4.165 0 00-5.718-.16l-1.391 1.248L9.11 3.269a4.166 4.166 0 00-5.723.16 4.166 4.166 0 00-.2 5.678l7.313 7.324 7.312-7.323a4.167 4.167 0 00-.2-5.68z"/></svg><svg viewBox="0 0 22 22" id="instagram-icon" xmlns="http://www.w3.org/2000/svg"><path d="M18.266 21.803H3.858c-1.902 0-3.45-1.584-3.45-3.531V3.532C.408 1.583 1.956 0 3.858 0h14.408c1.902 0 3.45 1.584 3.45 3.531v14.741c0 1.948-1.548 3.531-3.45 3.531zM7.558 4.513h7.15c1.519 0 2.75 1.263 2.75 2.82v7.334c0 1.557-1.231 2.82-2.75 2.82h-7.15c-1.519 0-2.75-1.263-2.75-2.82V7.333c0-1.557 1.231-2.82 2.75-2.82zm0-1.692c-2.43 0-4.4 2.02-4.4 4.512v7.334c0 2.492 1.97 4.513 4.4 4.513h7.15c2.43 0 4.4-2.021 4.4-4.513V7.333c0-2.492-1.97-4.512-4.4-4.512h-7.15zm3.575 12.128c2.126 0 3.85-1.768 3.85-3.949 0-2.18-1.724-3.949-3.85-3.949-2.126 0-3.85 1.768-3.85 3.949 0 2.18 1.724 3.949 3.85 3.949zm0-1.693c-1.215 0-2.2-1.01-2.2-2.256 0-1.246.985-2.256 2.2-2.256 1.215 0 2.2 1.01 2.2 2.256 0 1.246-.985 2.256-2.2 2.256zm4.125-5.359c.608 0 1.1-.505 1.1-1.128 0-.623-.492-1.128-1.1-1.128-.608 0-1.1.505-1.1 1.128 0 .623.492 1.128 1.1 1.128z"/></svg><svg viewBox="0 0 19 17" id="menu-icon" xmlns="http://www.w3.org/2000/svg"><path d="M.125.167h18.75V2.25H.125V.167zm0 7.291h18.75v2.084H.125V7.458zm0 7.292h18.75v2.083H.125V14.75z"/></svg><svg viewBox="0 0 16 16" id="phone-icon" xmlns="http://www.w3.org/2000/svg"><path d="M11.6 14.667A10.28 10.28 0 011.333 4.4 3.067 3.067 0 014.4 1.333c.172-.001.344.015.513.047.164.024.325.064.48.12a.667.667 0 01.434.5l.913 4a.667.667 0 01-.173.613c-.087.094-.094.1-.913.527A6.607 6.607 0 008.9 10.4c.434-.827.44-.833.534-.92a.667.667 0 01.613-.173l4 .913a.667.667 0 01.48.433 2.89 2.89 0 01.167.994 3.067 3.067 0 01-3.094 3.02zm-7.2-12A1.74 1.74 0 002.667 4.4a8.94 8.94 0 008.933 8.933 1.74 1.74 0 001.734-1.733v-.22l-3.094-.713-.193.366c-.3.58-.52 1-1.08.774A7.9 7.9 0 014.18 7c-.24-.52.214-.76.787-1.06l.367-.18-.714-3.093H4.4z"/></svg><svg viewBox="0 0 17 22" id="profile-icon" xmlns="http://www.w3.org/2000/svg"><path d="M.833 21.083a7.667 7.667 0 0115.334 0H14.25a5.75 5.75 0 10-11.5 0H.833zM8.5 12.458a5.748 5.748 0 01-5.75-5.75A5.748 5.748 0 018.5.958a5.748 5.748 0 015.75 5.75 5.748 5.748 0 01-5.75 5.75zm0-1.916a3.832 3.832 0 003.834-3.834A3.832 3.832 0 008.5 2.875a3.832 3.832 0 00-3.833 3.833A3.832 3.832 0 008.5 10.542z"/></svg><svg viewBox="0 0 21 21" id="search-icon" xmlns="http://www.w3.org/2000/svg"><path d="M16.031 14.617l4.283 4.282-1.415 1.415-4.282-4.283A8.96 8.96 0 019 18c-4.968 0-9-4.032-9-9s4.032-9 9-9 9 4.032 9 9a8.96 8.96 0 01-1.969 5.617zm-2.006-.742A6.977 6.977 0 0016 9c0-3.868-3.133-7-7-7-3.868 0-7 3.132-7 7 0 3.867 3.132 7 7 7a6.977 6.977 0 004.875-1.975l.15-.15z"/></svg><svg viewBox="0 0 22 22" id="vkontakte-icon" xmlns="http://www.w3.org/2000/svg"><path d="M4.313.001A4.324 4.324 0 000 4.313v13.38a4.324 4.324 0 004.312 4.311h13.38a4.324 4.324 0 004.311-4.311V4.313A4.324 4.324 0 0017.693 0H4.313zM6.78 4.966h4.34c.902 0 1.586.033 2.05.104a3.9 3.9 0 011.308.43c.439.237.769.556.986.95.217.397.327.853.327 1.372 0 .6-.15 1.132-.451 1.6a2.659 2.659 0 01-1.24 1.034v.063c.758.161 1.366.485 1.822.978.457.494.685 1.158.685 1.992 0 .61-.115 1.149-.346 1.61a3.297 3.297 0 01-.933 1.147 4.32 4.32 0 01-1.524.774c-.552.155-1.253.232-2.106.232H6.78V4.966zm3.07 2.252v2.6h.388c.527 0 .899-.005 1.11-.016.212-.011.432-.068.657-.172.245-.116.417-.276.51-.479a1.72 1.72 0 00.14-.71c0-.2-.05-.403-.152-.611a.912.912 0 00-.476-.454 1.912 1.912 0 00-.721-.146 44.1 44.1 0 00-1.242-.012H9.85zm0 4.705v3.075h.166c.803 0 1.358-.006 1.664-.017a2.59 2.59 0 00.94-.222 1.21 1.21 0 00.615-.533 1.61 1.61 0 00.194-.794c0-.38-.075-.676-.23-.89-.154-.216-.386-.377-.693-.487-.186-.074-.445-.113-.772-.121a56.358 56.358 0 00-1.315-.011h-.57z"/></svg><svg viewBox="0 0 22 22" id="youtube-icon" xmlns="http://www.w3.org/2000/svg"><g clip-path="url(#mclip0_2606_1071)"><path d="M9.797 12.547l3.265-1.719L9.797 9.11v3.438z"/><path d="M17.875 0H4.125A4.137 4.137 0 000 4.125v13.75A4.137 4.137 0 004.125 22h13.75A4.137 4.137 0 0022 17.875V4.125A4.137 4.137 0 0017.875 0zm-.925 12.732c-.084 1.16-.295 2.359-1.779 2.446a73.039 73.039 0 01-8.344 0c-1.483-.086-1.695-1.285-1.779-2.446a23.193 23.193 0 010-3.464c.084-1.16.296-2.359 1.779-2.446a73.306 73.306 0 018.344 0c1.484.086 1.695 1.285 1.78 2.446a23.193 23.193 0 010 3.464z"/></g><defs><clipPath id="mclip0_2606_1071"><path d="M0 0h22v22H0z"/></clipPath></defs></svg></svg>