<svg width="25" height="25" fill="none" xmlns="http://www.w3.org/2000/svg"><g clip-path="url(#clip0_3913_256)"><path d="M21 0H4a4 4 0 00-4 4v17a4 4 0 004 4h17a4 4 0 004-4V4a4 4 0 00-4-4z" fill="#7D3DAF"/><path d="M20.407 8.059l-.006-.02c-.399-1.615-2.2-3.347-3.853-3.707l-.018-.004a21.412 21.412 0 00-8.06 0l-.019.004c-1.653.36-3.453 2.092-3.853 3.707l-.005.02a15.775 15.775 0 000 6.795l.005.02c.383 1.545 2.049 3.198 3.64 3.653v1.802c0 .652.796.973 1.248.502l1.825-1.898a21.232 21.232 0 005.219-.348l.018-.004c1.654-.36 3.454-2.093 3.854-3.707l.005-.02a15.775 15.775 0 000-6.795zm-1.445 6.468c-.267 1.054-1.634 2.363-2.72 2.605-1.422.27-2.855.386-4.287.346a.102.102 0 00-.076.03l-1.333 1.37-1.418 1.455a.166.166 0 01-.286-.115v-2.985a.103.103 0 00-.084-.101c-1.087-.242-2.453-1.552-2.72-2.605a14.316 14.316 0 010-6.142c.267-1.053 1.633-2.362 2.72-2.604a19.942 19.942 0 017.484 0c1.086.242 2.453 1.551 2.72 2.604a14.301 14.301 0 010 6.142z" fill="#fff"/><path d="M14.863 15.905c-.167-.05-.326-.085-.474-.146-1.532-.635-2.941-1.455-4.057-2.711-.635-.715-1.132-1.521-1.552-2.375-.2-.405-.367-.826-.538-1.244-.156-.38.073-.775.315-1.062.227-.27.52-.476.836-.628.247-.118.49-.05.671.16.39.452.748.928 1.038 1.452.178.323.13.717-.194.937-.078.053-.15.116-.223.176a.732.732 0 00-.169.178.487.487 0 00-.032.428c.399 1.095 1.07 1.947 2.173 2.406.176.073.354.158.557.135.34-.04.45-.413.689-.608.233-.191.53-.194.782-.035.251.16.495.33.737.502.237.17.474.335.693.528.21.186.283.43.165.681-.218.461-.534.845-.99 1.09-.128.07-.282.091-.427.136.145-.044-.167-.05 0 0zm-2.359-8.693c2.003.056 3.649 1.385 4.001 3.366.06.337.082.682.108 1.025.012.144-.07.28-.226.283-.16.001-.232-.133-.243-.277-.02-.285-.035-.571-.074-.854a3.58 3.58 0 00-2.882-2.992c-.224-.04-.453-.05-.68-.074-.142-.015-.33-.023-.361-.201-.027-.15.099-.268.241-.276.039-.002.077 0 .116 0-.039 0 2.003.056 0 0z" fill="#fff"/><path d="M15.548 11.158c-.003.025-.005.084-.02.14-.053.2-.357.226-.428.023a.605.605 0 01-.024-.194c0-.424-.093-.848-.306-1.217a2.266 2.266 0 00-.95-.891 2.734 2.734 0 00-.758-.233c-.114-.019-.23-.03-.344-.046-.139-.02-.213-.108-.207-.245.007-.128.1-.22.24-.213.46.026.904.126 1.313.342.83.44 1.305 1.135 1.444 2.063.006.042.016.083.02.125l.02.346c-.008-.137-.003.025 0 0z" fill="#fff"/><path d="M14.302 11.11c-.167.003-.257-.09-.274-.244-.012-.107-.022-.215-.047-.32a.9.9 0 00-.332-.52.868.868 0 00-.271-.131c-.123-.036-.25-.026-.373-.056-.134-.033-.207-.14-.186-.266a.24.24 0 01.254-.193c.776.056 1.331.457 1.41 1.372.006.064.013.132-.002.194-.024.106-.102.159-.179.164.077-.005-.167.003 0 0z" fill="#fff"/></g><defs><clipPath id="clip0_3913_256"><path fill="#fff" d="M0 0h25v25H0z"/></clipPath></defs></svg>