<svg width="25" height="25" fill="none" xmlns="http://www.w3.org/2000/svg"><g clip-path="url(#clip0_3913_251)"><path d="M20.625 0H4.375A4.375 4.375 0 000 4.375v16.25A4.375 4.375 0 004.375 25h16.25A4.375 4.375 0 0025 20.625V4.375A4.375 4.375 0 0020.625 0z" fill="#05C443"/><path d="M10.711 8.352l.781 2.12a.298.298 0 01-.039.29 4.03 4.03 0 01-.578.668.312.312 0 00-.062.425c.48.645 1.726 2.208 3.347 2.766a.31.31 0 00.348-.113l.648-.863a.313.313 0 01.391-.09l2.031 1.015a.309.309 0 01.157.391c-.223.633-.922 2.176-2.418 1.926a8.121 8.121 0 01-5.004-2.824c-1.227-1.532-3.649-5.47.074-5.914a.312.312 0 01.324.203z" fill="#fff"/><path d="M13.125 21.406a9.457 9.457 0 01-4.664-1.222l-4.688 1.203 1.723-3.871a8.594 8.594 0 01-1.59-5.016c0-4.91 4.137-8.906 9.219-8.906s9.219 3.996 9.219 8.906-4.137 8.906-9.219 8.906zm-4.418-2.902l.285.176a7.864 7.864 0 004.133 1.172c4.223 0 7.656-3.293 7.656-7.344s-3.433-7.352-7.656-7.352S5.469 8.45 5.469 12.5a7.082 7.082 0 001.562 4.43l.293.37-1.41 2.391 2.793-1.187z" fill="#fff"/></g><defs><clipPath id="clip0_3913_251"><path fill="#fff" d="M0 0h25v25H0z"/></clipPath></defs></svg>