<?xml version="1.0" encoding="utf-8"?><svg viewBox="0 0 119.827 122.88" xmlns="http://www.w3.org/2000/svg" xmlns:xlink="http://www.w3.org/1999/xlink"><style>:root>svg{display:none}:root>svg:target{display:block}</style><svg viewBox="0 0 9 15" id="arrow-icon" xmlns="http://www.w3.org/2000/svg"><path d="M.429 7.5c0 .269.102.538.308.743l6.465 6.45c.412.41 1.079.41 1.49 0a1.049 1.049 0 000-1.486L2.97 7.5l5.72-5.707a1.049 1.049 0 000-1.485 1.054 1.054 0 00-1.489 0L.737 6.758a1.046 1.046 0 00-.308.742z"/></svg><svg viewBox="0 0 22 22" id="cart-icon" xmlns="http://www.w3.org/2000/svg"><path d="M2.167 14.667v-12.5H.083V.083h3.125A1.042 1.042 0 014.25 1.125v12.5h12.956l2.084-8.333H6.332V3.208h14.292a1.041 1.041 0 011.01 1.295L19.031 14.92a1.042 1.042 0 01-1.01.788H3.208a1.041 1.041 0 01-1.041-1.041zm2.083 7.291a2.083 2.083 0 110-4.166 2.083 2.083 0 010 4.166zm12.5 0a2.083 2.083 0 110-4.166 2.083 2.083 0 010 4.166z"/></svg><svg viewBox="0 0 25 25" id="chart-icon" xmlns="http://www.w3.org/2000/svg"><path d="M3.125 12.5h2.083v9.375H3.125V12.5zm16.667-4.167h2.083v13.542h-2.083V8.333zm-8.334-6.25h2.084v19.792h-2.084V2.083z"/></svg><svg viewBox="0 0 24 24" id="close-icon" xmlns="http://www.w3.org/2000/svg"><g clip-path="url(#dclip0_38_1642)"><path d="M12 10.586l4.95-4.95 1.414 1.414-4.95 4.95 4.95 4.95-1.414 1.414-4.95-4.95-4.95 4.95-1.414-1.414 4.95-4.95-4.95-4.95L7.05 5.636l4.95 4.95z"/></g><defs><clipPath id="dclip0_38_1642"><path d="M0 0h24v24H0z"/></clipPath></defs></svg><svg viewBox="0 0 16 16" id="email-icon" xmlns="http://www.w3.org/2000/svg"><path d="M12.667 2.667H3.333a2 2 0 00-2 2v6.666a2 2 0 002 2h9.334a2 2 0 002-2V4.667a2 2 0 00-2-2zM12.22 4L8 7.167 3.78 4h8.44zm.447 8H3.333a.666.666 0 01-.666-.667v-6.5l4.933 3.7a.667.667 0 00.8 0l4.934-3.7v6.5a.666.666 0 01-.667.667z"/></svg><svg viewBox="0 0 22 22" id="facebook-icon" xmlns="http://www.w3.org/2000/svg"><path d="M19.25 0H2.75A2.753 2.753 0 000 2.75v16.5A2.753 2.753 0 002.75 22H11v-7.563H8.25V11H11V8.25a4.125 4.125 0 014.125-4.125h2.75v3.438H16.5c-.759 0-1.375-.072-1.375.687V11h3.438l-1.375 3.438h-2.063V22h4.125A2.753 2.753 0 0022 19.25V2.75A2.753 2.753 0 0019.25 0z"/></svg><svg viewBox="0 0 24 24" id="filter-icon" xmlns="http://www.w3.org/2000/svg"><g clip-path="url(#gclip0_38_630)"><path d="M6.17 18a3 3 0 015.66 0H22v2H11.83a3 3 0 01-5.66 0H2v-2h4.17zm6-7a3 3 0 015.66 0H22v2h-4.17a3 3 0 01-5.66 0H2v-2h10.17zm-6-7a3.001 3.001 0 015.66 0H22v2H11.83a3 3 0 01-5.66 0H2V4h4.17zM9 6a1 1 0 100-2 1 1 0 000 2zm6 7a1 1 0 100-2 1 1 0 000 2zm-6 7a1 1 0 100-2 1 1 0 000 2z"/></g><defs><clipPath id="gclip0_38_630"><path d="M0 0h24v24H0z"/></clipPath></defs></svg><svg viewBox="0 0 32 32" id="hand-coin-icon" xmlns="http://www.w3.org/2000/svg"><g clip-path="url(#hclip0_14_615)"><path d="M6.667 12A1.333 1.333 0 018 13.333a9.294 9.294 0 015.773 2h2.894c1.777 0 3.373.774 4.472 2h4.194a6.667 6.667 0 016.022 3.802C28.2 25.296 23.095 28 17.333 28c-3.72 0-6.866-.804-9.413-2.21a1.33 1.33 0 01-1.253.877h-4a1.333 1.333 0 01-1.334-1.334v-12A1.333 1.333 0 012.667 12h4zM8 16L8 22.696l.06.043c2.393 1.68 5.51 2.594 9.273 2.594 4.006 0 7.732-1.54 10.447-4.173l.177-.177-.16-.134a3.992 3.992 0 00-2.19-.84L25.333 20H22.52c.096.43.148.875.148 1.333v1.334h-12V20L19.72 20l-.045-.104a3.335 3.335 0 00-2.79-1.888L16.667 18H12.76a6.647 6.647 0 00-4.757-2H8zm-2.668-1.333H4V24h1.333v-9.333zm18.667-8a4 4 0 110 8 4 4 0 010-8zm0 2.666A1.333 1.333 0 1024 12a1.333 1.333 0 000-2.667zm-9.333-6.666a4 4 0 110 8 4 4 0 010-8zm0 2.666a1.333 1.333 0 100 2.667 1.333 1.333 0 000-2.667z"/></g><defs><clipPath id="hclip0_14_615"><path d="M0 0h32v32H0z"/></clipPath></defs></svg><svg viewBox="0 0 21 20" id="heart-icon" xmlns="http://www.w3.org/2000/svg"><path d="M10.501 1.718a6.248 6.248 0 018.585.237 6.251 6.251 0 01.246 8.58L10.5 19.38l-8.831-8.846A6.25 6.25 0 0110.5 1.717zm7.11 1.71a4.165 4.165 0 00-5.718-.16l-1.391 1.248L9.11 3.269a4.166 4.166 0 00-5.723.16 4.166 4.166 0 00-.2 5.678l7.313 7.324 7.312-7.323a4.167 4.167 0 00-.2-5.68z"/></svg><svg viewBox="0 0 22 22" id="instagram-icon" xmlns="http://www.w3.org/2000/svg"><path d="M18.266 21.803H3.858c-1.902 0-3.45-1.584-3.45-3.531V3.532C.408 1.583 1.956 0 3.858 0h14.408c1.902 0 3.45 1.584 3.45 3.531v14.741c0 1.948-1.548 3.531-3.45 3.531zM7.558 4.513h7.15c1.519 0 2.75 1.263 2.75 2.82v7.334c0 1.557-1.231 2.82-2.75 2.82h-7.15c-1.519 0-2.75-1.263-2.75-2.82V7.333c0-1.557 1.231-2.82 2.75-2.82zm0-1.692c-2.43 0-4.4 2.02-4.4 4.512v7.334c0 2.492 1.97 4.513 4.4 4.513h7.15c2.43 0 4.4-2.021 4.4-4.513V7.333c0-2.492-1.97-4.512-4.4-4.512h-7.15zm3.575 12.128c2.126 0 3.85-1.768 3.85-3.949 0-2.18-1.724-3.949-3.85-3.949-2.126 0-3.85 1.768-3.85 3.949 0 2.18 1.724 3.949 3.85 3.949zm0-1.693c-1.215 0-2.2-1.01-2.2-2.256 0-1.246.985-2.256 2.2-2.256 1.215 0 2.2 1.01 2.2 2.256 0 1.246-.985 2.256-2.2 2.256zm4.125-5.359c.608 0 1.1-.505 1.1-1.128 0-.623-.492-1.128-1.1-1.128-.608 0-1.1.505-1.1 1.128 0 .623.492 1.128 1.1 1.128z"/></svg><svg viewBox="0 0 32 32" id="luggage-cart-icon" xmlns="http://www.w3.org/2000/svg"><g clip-path="url(#kclip0_14_605)"><path d="M7.333 26.667a2 2 0 11-.001 4.001 2 2 0 01.001-4.001zm17.334 0a2 2 0 11-.002 4.001 2 2 0 01.002-4.001zM2.897 2.343l5.102 5.104v15.22h18.668v2.666h-20A1.334 1.334 0 015.333 24V8.55L1.008 4.23l1.887-1.887h.001zM21.332 4c.736 0 1.334.597 1.334 1.333V8h3.99C27.4 8 28 8.608 28 9.327v10.68c0 .733-.6 1.326-1.343 1.326h-15.98a1.343 1.343 0 01-1.344-1.326V9.327c0-.734.6-1.327 1.343-1.327h3.99V5.333C14.667 4.597 15.265 4 16 4h5.333zm-8 6.667H12v8h1.333v-8zm8 0H16v8h5.333v-8zm4 0H24v8h1.333v-8zm-5.333-4h-2.667V8H20V6.667z"/></g><defs><clipPath id="kclip0_14_605"><path d="M0 0h32v32H0z"/></clipPath></defs></svg><svg viewBox="0 0 19 17" id="menu-icon" xmlns="http://www.w3.org/2000/svg"><path d="M.125.167h18.75V2.25H.125V.167zm0 7.291h18.75v2.084H.125V7.458zm0 7.292h18.75v2.083H.125V14.75z"/></svg><svg viewBox="0 0 19 19" id="minus-icon" xmlns="http://www.w3.org/2000/svg"><g clip-path="url(#mclip0_38_694)"><path d="M3.958 8.708h11.083v1.584H3.958V8.708z"/></g><defs><clipPath id="mclip0_38_694"><path d="M0 0h19v19H0z"/></clipPath></defs></svg><svg viewBox="0 0 16 16" id="phone-icon" xmlns="http://www.w3.org/2000/svg"><path d="M11.6 14.667A10.28 10.28 0 011.333 4.4 3.067 3.067 0 014.4 1.333c.172-.001.344.015.513.047.164.024.325.064.48.12a.667.667 0 01.434.5l.913 4a.667.667 0 01-.173.613c-.087.094-.094.1-.913.527A6.607 6.607 0 008.9 10.4c.434-.827.44-.833.534-.92a.667.667 0 01.613-.173l4 .913a.667.667 0 01.48.433 2.89 2.89 0 01.167.994 3.067 3.067 0 01-3.094 3.02zm-7.2-12A1.74 1.74 0 002.667 4.4a8.94 8.94 0 008.933 8.933 1.74 1.74 0 001.734-1.733v-.22l-3.094-.713-.193.366c-.3.58-.52 1-1.08.774A7.9 7.9 0 014.18 7c-.24-.52.214-.76.787-1.06l.367-.18-.714-3.093H4.4z"/></svg><svg viewBox="0 0 19 19" id="plus-icon" xmlns="http://www.w3.org/2000/svg"><g clip-path="url(#oclip0_38_697)"><path d="M8.708 8.708v-4.75h1.583v4.75h4.75v1.584h-4.75v4.75H8.708v-4.75h-4.75V8.708h4.75z"/></g><defs><clipPath id="oclip0_38_697"><path d="M0 0h19v19H0z"/></clipPath></defs></svg><svg viewBox="0 0 17 22" id="profile-icon" xmlns="http://www.w3.org/2000/svg"><path d="M.833 21.083a7.667 7.667 0 0115.334 0H14.25a5.75 5.75 0 10-11.5 0H.833zM8.5 12.458a5.748 5.748 0 01-5.75-5.75A5.748 5.748 0 018.5.958a5.748 5.748 0 015.75 5.75 5.748 5.748 0 01-5.75 5.75zm0-1.916a3.832 3.832 0 003.834-3.834A3.832 3.832 0 008.5 2.875a3.832 3.832 0 00-3.833 3.833A3.832 3.832 0 008.5 10.542z"/></svg><svg viewBox="0 0 21 21" id="search-icon" xmlns="http://www.w3.org/2000/svg"><path d="M16.031 14.617l4.283 4.282-1.415 1.415-4.282-4.283A8.96 8.96 0 019 18c-4.968 0-9-4.032-9-9s4.032-9 9-9 9 4.032 9 9a8.96 8.96 0 01-1.969 5.617zm-2.006-.742A6.977 6.977 0 0016 9c0-3.868-3.133-7-7-7-3.868 0-7 3.132-7 7 0 3.867 3.132 7 7 7a6.977 6.977 0 004.875-1.975l.15-.15z"/></svg><svg viewBox="0 0 20 21" id="share-icon" xmlns="http://www.w3.org/2000/svg"><path d="M12.142 15.99l-5.323-2.902a3.646 3.646 0 110-5.175l5.323-2.904a3.646 3.646 0 11.998 1.829L7.817 9.74a3.66 3.66 0 010 1.518l5.323 2.903a3.647 3.647 0 11-.998 1.829z"/></svg><svg viewBox="0 0 32 32" id="shield-star-icon" xmlns="http://www.w3.org/2000/svg"><g clip-path="url(#sclip0_14_622)"><path d="M6.667 6.139v12.246a5.333 5.333 0 002.374 4.438L16 27.463l6.959-4.64a5.334 5.334 0 002.374-4.436V6.139L16 4.067 6.667 6.139zM5.044 3.768L16 1.333l10.956 2.435A1.333 1.333 0 0128 5.069v13.316a8 8 0 01-3.563 6.656L16 30.667 7.563 25.04A8 8 0 014 18.387V5.069a1.333 1.333 0 011.044-1.301zM16 18l-3.919 2.06.748-4.363-3.169-3.09 4.381-.638L16 8l1.96 3.97 4.38.638-3.17 3.09.747 4.363L16 18z"/></g><defs><clipPath id="sclip0_14_622"><path d="M0 0h32v32H0z"/></clipPath></defs></svg><svg viewBox="0 0 25 23" id="star-icon" xmlns="http://www.w3.org/2000/svg"><path d="M12.5 0l2.806 8.637h9.082l-7.347 5.338 2.806 8.638-7.347-5.338-7.347 5.338 2.806-8.638L.612 8.637h9.082L12.5 0z"/></svg><svg viewBox="0 0 32 32" id="user-icon" xmlns="http://www.w3.org/2000/svg"><g clip-path="url(#uclip0_14_629)"><path d="M5.333 29.333a10.667 10.667 0 1121.334 0H5.333zm12-7.89v5.224h6.212a8.014 8.014 0 00-6.212-5.223zm-2.666 5.224v-5.223a8.013 8.013 0 00-6.212 5.223h6.212zM16 17.333c-4.42 0-8-3.58-8-8s3.58-8 8-8 8 3.58 8 8-3.58 8-8 8zm0-2.666a5.332 5.332 0 005.333-5.334A5.332 5.332 0 0016 4a5.332 5.332 0 00-5.333 5.333A5.332 5.332 0 0016 14.667z"/></g><defs><clipPath id="uclip0_14_629"><path d="M0 0h32v32H0z"/></clipPath></defs></svg><svg viewBox="0 0 25 25" id="viber-icon" xmlns="http://www.w3.org/2000/svg"><g clip-path="url(#vclip0_3913_256)"><path d="M21 0H4a4 4 0 00-4 4v17a4 4 0 004 4h17a4 4 0 004-4V4a4 4 0 00-4-4z"/><path d="M20.407 8.059l-.006-.02c-.399-1.615-2.2-3.347-3.853-3.707l-.018-.004a21.412 21.412 0 00-8.06 0l-.019.004c-1.653.36-3.453 2.092-3.853 3.707l-.005.02a15.775 15.775 0 000 6.795l.005.02c.383 1.545 2.049 3.198 3.64 3.653v1.802c0 .652.796.973 1.248.502l1.825-1.898a21.232 21.232 0 005.219-.348l.018-.004c1.654-.36 3.454-2.093 3.854-3.707l.005-.02a15.775 15.775 0 000-6.795zm-1.445 6.468c-.267 1.054-1.634 2.363-2.72 2.605-1.422.27-2.855.386-4.287.346a.102.102 0 00-.076.03l-1.333 1.37-1.418 1.455a.166.166 0 01-.286-.115v-2.985a.103.103 0 00-.084-.101c-1.087-.242-2.453-1.552-2.72-2.605a14.316 14.316 0 010-6.142c.267-1.053 1.633-2.362 2.72-2.604a19.942 19.942 0 017.484 0c1.086.242 2.453 1.551 2.72 2.604a14.301 14.301 0 010 6.142z"/><path d="M14.863 15.905c-.167-.05-.326-.085-.474-.146-1.532-.635-2.941-1.455-4.057-2.711-.635-.715-1.132-1.521-1.552-2.375-.2-.405-.367-.826-.538-1.244-.156-.38.073-.775.315-1.062.227-.27.52-.476.836-.628.247-.118.49-.05.671.16.39.452.748.928 1.038 1.452.178.323.13.717-.194.937-.078.053-.15.116-.223.176a.732.732 0 00-.169.178.487.487 0 00-.032.428c.399 1.095 1.07 1.947 2.173 2.406.176.073.354.158.557.135.34-.04.45-.413.689-.608.233-.191.53-.194.782-.035.251.16.495.33.737.502.237.17.474.335.693.528.21.186.283.43.165.681-.218.461-.534.845-.99 1.09-.128.07-.282.091-.427.136-.167-.05.145-.044 0 0zM12.504 7.212c2.003.056 3.649 1.385 4.001 3.366.06.337.082.682.108 1.025.012.144-.07.28-.226.283-.16.001-.232-.133-.243-.277-.02-.285-.035-.571-.074-.854a3.58 3.58 0 00-2.882-2.992c-.224-.04-.453-.05-.68-.074-.142-.015-.33-.023-.361-.201-.027-.15.099-.268.241-.276.039-.002.077 0 .116 0 2.003.056-.039 0 0 0z"/><path d="M15.548 11.158c-.003.025-.005.084-.02.14-.053.2-.357.226-.428.023a.605.605 0 01-.024-.194c0-.424-.093-.848-.306-1.217a2.266 2.266 0 00-.95-.891 2.734 2.734 0 00-.758-.233c-.114-.019-.23-.03-.344-.046-.139-.02-.213-.108-.207-.245.007-.128.1-.22.24-.213.46.026.904.126 1.313.342.83.44 1.305 1.135 1.444 2.063.006.042.016.083.02.125l.02.346c-.003.025-.008-.137 0 0z"/><path d="M14.302 11.11c-.167.003-.257-.09-.274-.244-.012-.107-.022-.215-.047-.32a.9.9 0 00-.332-.52.868.868 0 00-.271-.131c-.123-.036-.25-.026-.373-.056-.134-.033-.207-.14-.186-.266a.24.24 0 01.254-.193c.776.056 1.331.457 1.41 1.372.006.064.013.132-.002.194-.024.106-.102.159-.179.164-.167.003.077-.005 0 0z"/></g><defs><clipPath id="vclip0_3913_256"><path d="M0 0h25v25H0z"/></clipPath></defs></svg><svg viewBox="0 0 22 22" id="vkontakte-icon" xmlns="http://www.w3.org/2000/svg"><path d="M4.313.001A4.324 4.324 0 000 4.313v13.38a4.324 4.324 0 004.312 4.311h13.38a4.324 4.324 0 004.311-4.311V4.313A4.324 4.324 0 0017.693 0H4.313zM6.78 4.966h4.34c.902 0 1.586.033 2.05.104a3.9 3.9 0 011.308.43c.439.237.769.556.986.95.217.397.327.853.327 1.372 0 .6-.15 1.132-.451 1.6a2.659 2.659 0 01-1.24 1.034v.063c.758.161 1.366.485 1.822.978.457.494.685 1.158.685 1.992 0 .61-.115 1.149-.346 1.61-.232.462-.541.843-.933 1.147a4.32 4.32 0 01-1.524.774c-.552.155-1.253.232-2.106.232H6.78V4.966zm3.07 2.252v2.6h.388c.527 0 .899-.005 1.11-.016.212-.011.432-.068.657-.172.245-.116.417-.276.51-.479.092-.205.14-.442.14-.71 0-.2-.05-.403-.152-.611a.912.912 0 00-.476-.454 1.912 1.912 0 00-.721-.146 44.1 44.1 0 00-1.242-.012h-.214zm0 4.705v3.075h.166c.803 0 1.358-.006 1.664-.017a2.59 2.59 0 00.94-.222c.283-.12.486-.298.615-.533a1.61 1.61 0 00.194-.794c0-.38-.075-.676-.23-.89-.154-.216-.386-.377-.693-.487-.186-.074-.445-.113-.772-.121a56.358 56.358 0 00-1.315-.011h-.57z"/></svg><svg viewBox="0 0 25 25" id="whatsapp-icon" xmlns="http://www.w3.org/2000/svg"><path d="M20.625 0H4.375A4.375 4.375 0 000 4.375v16.25A4.375 4.375 0 004.375 25h16.25A4.375 4.375 0 0025 20.625V4.375A4.375 4.375 0 0020.625 0z"/><path d="M10.711 8.352l.781 2.12a.298.298 0 01-.039.29 4.03 4.03 0 01-.578.668.312.312 0 00-.062.425c.48.645 1.726 2.208 3.347 2.766a.31.31 0 00.348-.113l.648-.863a.313.313 0 01.391-.09l2.031 1.015a.309.309 0 01.157.391c-.223.633-.922 2.176-2.418 1.926a8.121 8.121 0 01-5.004-2.824c-1.227-1.532-3.649-5.47.074-5.914a.312.312 0 01.324.203z"/><path d="M13.125 21.406a9.457 9.457 0 01-4.664-1.222l-4.688 1.203 1.723-3.871a8.594 8.594 0 01-1.59-5.016c0-4.91 4.137-8.906 9.219-8.906s9.219 3.996 9.219 8.906-4.137 8.906-9.219 8.906zm-4.418-2.902l.285.176a7.864 7.864 0 004.133 1.172c4.223 0 7.656-3.293 7.656-7.344s-3.433-7.352-7.656-7.352S5.469 8.45 5.469 12.5a7.082 7.082 0 001.562 4.43l.293.37-1.41 2.391 2.793-1.187z"/></svg><svg viewBox="0 0 22 22" id="youtube-icon" xmlns="http://www.w3.org/2000/svg"><g clip-path="url(#yclip0_2606_1071)"><path d="M9.797 12.547l3.265-1.719L9.797 9.11v3.438z"/><path d="M17.875 0H4.125A4.137 4.137 0 000 4.125v13.75A4.137 4.137 0 004.125 22h13.75A4.137 4.137 0 0022 17.875V4.125A4.137 4.137 0 0017.875 0zm-.925 12.732c-.084 1.16-.295 2.359-1.779 2.446-2.779.159-5.565.159-8.344 0-1.483-.086-1.695-1.285-1.779-2.446a23.193 23.193 0 010-3.464c.084-1.16.296-2.359 1.779-2.446a73.306 73.306 0 018.344 0c1.484.086 1.695 1.285 1.78 2.446a23.193 23.193 0 010 3.464z"/></g><defs><clipPath id="yclip0_2606_1071"><path d="M0 0h22v22H0z"/></clipPath></defs></svg><svg viewBox="0 0 119.827 122.88" id="zoom-icon" xmlns="http://www.w3.org/2000/svg"><path d="M78.693 87.06a3.758 3.758 0 01-.561-.715 48.116 48.116 0 01-29.814 10.292c-13.343 0-25.423-5.408-34.167-14.152C5.408 73.74 0 61.661 0 48.318s5.408-25.422 14.152-34.166C22.896 5.408 34.976 0 48.319 0S73.74 5.408 82.484 14.152s14.152 20.823 14.152 34.166c0 12.808-4.984 24.451-13.117 33.099.148.108.291.229.424.363l34.787 34.737a3.723 3.723 0 01-5.25 5.28L78.693 87.06zM29.458 52.052a3.733 3.733 0 110-7.466h15.126V29.459a3.733 3.733 0 117.466 0v15.126h15.126a3.732 3.732 0 013.732 3.733 3.732 3.732 0 01-3.732 3.733H52.051v15.126a3.733 3.733 0 11-7.466 0V52.052H29.458zm47.624-32.497c-7.361-7.361-17.53-11.914-28.763-11.914s-21.403 4.553-28.764 11.914S7.641 37.085 7.641 48.318s4.553 21.403 11.914 28.764c7.361 7.361 17.531 11.914 28.764 11.914s21.402-4.553 28.763-11.914c7.361-7.36 11.914-17.53 11.914-28.764s-4.553-21.402-11.914-28.763z"/></svg></svg>