<svg width="32" height="32" viewBox="0 0 32 32" fill="none" xmlns="http://www.w3.org/2000/svg">
<g clip-path="url(#clip0_14_615)">
<path d="M6.66658 12.0001C7.02021 12.0001 7.35935 12.1406 7.60939 12.3906C7.85944 12.6407 7.99992 12.9798 7.99992 13.3334C10.0948 13.3303 12.1292 14.0351 13.7733 15.3334H16.6666C18.4439 15.3334 20.0399 16.1067 21.1386 17.3334H25.3333C26.5936 17.3331 27.8282 17.69 28.894 18.3628C29.9597 19.0356 30.8129 19.9968 31.3546 21.1347C28.2013 25.2961 23.0959 28.0001 17.3333 28.0001C13.6133 28.0001 10.4666 27.1961 7.91992 25.7894C7.82664 26.0468 7.65624 26.2692 7.43194 26.4262C7.20764 26.5832 6.94037 26.6672 6.66658 26.6667H2.66659C2.31296 26.6667 1.97382 26.5263 1.72378 26.2762C1.47373 26.0262 1.33325 25.687 1.33325 25.3334V13.3334C1.33325 12.9798 1.47373 12.6407 1.72378 12.3906C1.97382 12.1406 2.31296 12.0001 2.66659 12.0001H6.66658ZM8.00125 16.0001L7.99992 22.6961L8.05992 22.7387C10.4533 24.4187 13.5706 25.3334 17.3333 25.3334C21.3386 25.3334 25.0652 23.7921 27.7799 21.1601L27.9573 20.9827L27.7972 20.8494C27.1677 20.3563 26.4045 20.0637 25.6066 20.0094L25.3333 20.0001H22.5186C22.6146 20.4294 22.6666 20.8747 22.6666 21.3334V22.6667H10.6666V20.0001L19.7199 19.9987L19.6746 19.8947C19.4191 19.3608 19.026 18.9045 18.5358 18.5727C18.0456 18.2409 17.4759 18.0456 16.8853 18.0067L16.6666 18.0001H12.7599C12.1403 17.3664 11.4003 16.863 10.5833 16.5195C9.76628 16.1761 8.88884 15.9994 8.00258 16.0001H8.00125ZM5.33325 14.6667H3.99992V24.0001H5.33325V14.6667ZM23.9999 6.66675C25.0608 6.66675 26.0782 7.08818 26.8283 7.83832C27.5785 8.58847 27.9999 9.60588 27.9999 10.6667C27.9999 11.7276 27.5785 12.745 26.8283 13.4952C26.0782 14.2453 25.0608 14.6667 23.9999 14.6667C22.9391 14.6667 21.9216 14.2453 21.1715 13.4952C20.4213 12.745 19.9999 11.7276 19.9999 10.6667C19.9999 9.60588 20.4213 8.58847 21.1715 7.83832C21.9216 7.08818 22.9391 6.66675 23.9999 6.66675ZM23.9999 9.33341C23.6463 9.33341 23.3072 9.47389 23.0571 9.72394C22.8071 9.97399 22.6666 10.3131 22.6666 10.6667C22.6666 11.0204 22.8071 11.3595 23.0571 11.6096C23.3072 11.8596 23.6463 12.0001 23.9999 12.0001C24.3535 12.0001 24.6927 11.8596 24.9427 11.6096C25.1928 11.3595 25.3333 11.0204 25.3333 10.6667C25.3333 10.3131 25.1928 9.97399 24.9427 9.72394C24.6927 9.47389 24.3535 9.33341 23.9999 9.33341ZM14.6666 2.66675C15.7275 2.66675 16.7449 3.08818 17.495 3.83832C18.2452 4.58847 18.6666 5.60588 18.6666 6.66675C18.6666 7.72761 18.2452 8.74503 17.495 9.49518C16.7449 10.2453 15.7275 10.6667 14.6666 10.6667C13.6057 10.6667 12.5883 10.2453 11.8382 9.49518C11.088 8.74503 10.6666 7.72761 10.6666 6.66675C10.6666 5.60588 11.088 4.58847 11.8382 3.83832C12.5883 3.08818 13.6057 2.66675 14.6666 2.66675V2.66675ZM14.6666 5.33341C14.313 5.33341 13.9738 5.47389 13.7238 5.72394C13.4737 5.97399 13.3333 6.31313 13.3333 6.66675C13.3333 7.02037 13.4737 7.35951 13.7238 7.60956C13.9738 7.85961 14.313 8.00008 14.6666 8.00008C15.0202 8.00008 15.3593 7.85961 15.6094 7.60956C15.8594 7.35951 15.9999 7.02037 15.9999 6.66675C15.9999 6.31313 15.8594 5.97399 15.6094 5.72394C15.3593 5.47389 15.0202 5.33341 14.6666 5.33341V5.33341Z" fill="#FF9900"/>
</g>
<defs>
<clipPath id="clip0_14_615">
<rect width="32" height="32" fill="white"/>
</clipPath>
</defs>
</svg>
