<svg width="32" height="32" viewBox="0 0 32 32" fill="none" xmlns="http://www.w3.org/2000/svg">
<g clip-path="url(#clip0_14_605)">
<path d="M7.33339 26.6668C8.43739 26.6668 9.33339 27.5628 9.33339 28.6668C9.33339 29.7708 8.43739 30.6668 7.33339 30.6668C6.22939 30.6668 5.33339 29.7708 5.33339 28.6668C5.33339 27.5628 6.22939 26.6668 7.33339 26.6668ZM24.6667 26.6668C25.7707 26.6668 26.6667 27.5628 26.6667 28.6668C26.6667 29.7708 25.7707 30.6668 24.6667 30.6668C23.5627 30.6668 22.6667 29.7708 22.6667 28.6668C22.6667 27.5628 23.5627 26.6668 24.6667 26.6668ZM2.89606 2.34277L7.99872 7.44677V22.6668H26.6667V25.3334H6.66672C5.93072 25.3334 5.33339 24.7361 5.33339 24.0001V8.55077L1.00806 4.22944L2.89472 2.34277H2.89606ZM21.3334 4.00011C22.0694 4.00011 22.6667 4.59744 22.6667 5.33344V8.00011H26.6574C27.4001 8.00011 28.0001 8.60811 28.0001 9.32677V20.0068C28.0001 20.7401 27.4001 21.3334 26.6574 21.3334H10.6761C9.93339 21.3334 9.33339 20.7254 9.33339 20.0068V9.32677C9.33339 8.59344 9.93339 8.00011 10.6761 8.00011H14.6654L14.6667 5.33344C14.6667 4.59744 15.2641 4.00011 16.0001 4.00011H21.3334ZM13.3334 10.6668H12.0001V18.6668H13.3334V10.6668ZM21.3334 10.6668H16.0001V18.6668H21.3334V10.6668ZM25.3334 10.6668H24.0001V18.6668H25.3334V10.6668ZM20.0001 6.66677H17.3334V8.00011H20.0001V6.66677Z" fill="#FF9900"/>
</g>
<defs>
<clipPath id="clip0_14_605">
<rect width="32" height="32" fill="white"/>
</clipPath>
</defs>
</svg>
