<svg width="32" height="32" viewBox="0 0 32 32" fill="none" xmlns="http://www.w3.org/2000/svg">
<g clip-path="url(#clip0_14_629)">
<path d="M5.33325 29.3333C5.33325 26.5043 6.45706 23.7912 8.45745 21.7908C10.4578 19.7904 13.1709 18.6666 15.9999 18.6666C18.8289 18.6666 21.542 19.7904 23.5424 21.7908C25.5428 23.7912 26.6666 26.5043 26.6666 29.3333H5.33325ZM17.3333 21.4439V26.6666H23.5453C23.0686 25.3218 22.2415 24.1287 21.1495 23.2105C20.0574 22.2924 18.7399 21.6825 17.3333 21.4439ZM14.6666 26.6666V21.4439C13.2599 21.6825 11.9425 22.2924 10.8504 23.2105C9.75831 24.1287 8.93122 25.3218 8.45459 26.6666H14.6666ZM15.9999 17.3333C11.5799 17.3333 7.99992 13.7533 7.99992 9.33325C7.99992 4.91325 11.5799 1.33325 15.9999 1.33325C20.4199 1.33325 23.9999 4.91325 23.9999 9.33325C23.9999 13.7533 20.4199 17.3333 15.9999 17.3333ZM15.9999 14.6666C18.9466 14.6666 21.3333 12.2799 21.3333 9.33325C21.3333 6.38659 18.9466 3.99992 15.9999 3.99992C13.0533 3.99992 10.6666 6.38659 10.6666 9.33325C10.6666 12.2799 13.0533 14.6666 15.9999 14.6666Z" fill="#FF9900"/>
</g>
<defs>
<clipPath id="clip0_14_629">
<rect width="32" height="32" fill="white"/>
</clipPath>
</defs>
</svg>
