<svg width="58" height="37" viewBox="0 0 58 37" fill="none" xmlns="http://www.w3.org/2000/svg">
<path d="M55 0H3C1.34315 0 0 1.34315 0 3V34C0 35.6569 1.34315 37 3 37H55C56.6569 37 58 35.6569 58 34V3C58 1.34315 56.6569 0 55 0Z" fill="white"/>
<path d="M21.8024 25.8061L24.2831 11.3198H28.2509L25.7684 25.8061H21.8024ZM40.1029 11.6321C39.3169 11.3386 38.085 11.0237 36.5469 11.0237C32.6263 11.0237 29.8646 12.9884 29.8412 15.8043C29.819 17.8859 31.8127 19.0471 33.3176 19.7401C34.8621 20.4501 35.3812 20.9029 35.3739 21.537C35.3642 22.508 34.1406 22.9516 33.0003 22.9516C31.4122 22.9516 30.5685 22.732 29.2654 22.1912L28.7541 21.961L28.1973 25.2039C29.124 25.6083 30.8377 25.9586 32.617 25.9767C36.7878 25.9767 39.4952 24.0345 39.5261 21.0274C39.5409 19.3795 38.4839 18.1255 36.1948 17.0915C34.808 16.4215 33.9587 15.9742 33.9677 15.2957C33.9677 14.6936 34.6866 14.0496 36.2399 14.0496C37.5373 14.0296 38.4773 14.3112 39.2096 14.6046L39.5651 14.7719L40.1029 11.6321ZM50.3131 11.3196H47.2471C46.2973 11.3196 45.5866 11.5776 45.1695 12.5209L39.277 25.7965H43.4434C43.4434 25.7965 44.1245 24.0114 44.2786 23.6196C44.734 23.6196 48.7814 23.6258 49.3601 23.6258C49.4788 24.1329 49.8427 25.7965 49.8427 25.7965H53.5245L50.3131 11.3192V11.3196ZM45.4487 20.674C45.7768 19.8393 47.0296 16.6244 47.0296 16.6244C47.0061 16.6631 47.3552 15.7857 47.5556 15.2418L47.8236 16.4909C47.8236 16.4909 48.5835 19.9488 48.7423 20.674H45.4487ZM18.4341 11.3196L14.5496 21.1986L14.1356 19.191C13.4125 16.8768 11.1594 14.3695 8.64062 13.1143L12.1925 25.7831L16.3905 25.7783L22.6369 11.3195H18.4341" fill="#0E4595"/>
<path d="M10.9246 11.3189H4.52671L4.47607 11.6203C9.45352 12.8194 12.747 15.7172 14.1145 19.1986L12.7232 12.5416C12.483 11.6244 11.7865 11.3506 10.9248 11.3186" fill="#F2AE14"/>
</svg>
